<?xml version="1.0" encoding="UTF-8" standalone="no"?>
<!-- Created with Inkscape (http://www.inkscape.org/) -->

<svg
   xmlns:dc="http://purl.org/dc/elements/1.1/"
   xmlns:cc="http://creativecommons.org/ns#"
   xmlns:rdf="http://www.w3.org/1999/02/22-rdf-syntax-ns#"
   xmlns:svg="http://www.w3.org/2000/svg"
   xmlns="http://www.w3.org/2000/svg"
   xmlns:sodipodi="http://sodipodi.sourceforge.net/DTD/sodipodi-0.dtd"
   xmlns:inkscape="http://www.inkscape.org/namespaces/inkscape"
   width="1920"
   height="1080"
   viewBox="0 0 1920 1080"
   id="svg2"
   version="1.1"
   inkscape:version="0.91 r13725"
   sodipodi:docname="couverture.svg"
   inkscape:export-filename="C:\Users\Morphee\Documents\GitHub\jeux\DEV'S INVADER\illustrations\couverture.png"
   inkscape:export-xdpi="90"
   inkscape:export-ydpi="90">
  <sodipodi:namedview
     id="base"
     pagecolor="#ffffff"
     bordercolor="#666666"
     borderopacity="1.0"
     inkscape:pageopacity="1"
     inkscape:pageshadow="2"
     inkscape:zoom="0.68697917"
     inkscape:cx="694.3442"
     inkscape:cy="423.54814"
     inkscape:document-units="px"
     inkscape:current-layer="layer1"
     showgrid="false"
     units="px"
     showborder="true"
     inkscape:window-width="1366"
     inkscape:window-height="745"
     inkscape:window-x="-8"
     inkscape:window-y="-8"
     inkscape:window-maximized="1" />
  <defs
     id="defs4" />
  <metadata
     id="metadata7">
    <rdf:RDF>
      <cc:Work
         rdf:about="">
        <dc:format>image/svg+xml</dc:format>
        <dc:type
           rdf:resource="http://purl.org/dc/dcmitype/StillImage" />
        <dc:title />
      </cc:Work>
    </rdf:RDF>
  </metadata>
  <g
     transform="translate(0,27.637808)"
     id="layer1"
     inkscape:groupmode="layer"
     inkscape:label="Calque 1">
    <path
       id="path4258"
       transform="translate(0,-27.637808)"
       d="M 779.77734 630.19922 C 771.23522 630.19922 763.87688 633.33055 757.70508 639.5918 C 751.578 645.80832 748.51562 653.23171 748.51562 661.86328 C 748.51563 669.01899 750.54933 676.17632 754.61914 683.33203 C 757.16836 687.84907 758.44336 690.77744 758.44336 692.11914 C 758.44336 694.17641 757.63933 695.89874 756.0293 697.28516 C 754.46398 698.62685 752.49533 699.29688 750.125 699.29688 C 748.11245 699.29687 745.80878 698.46921 743.21484 696.81445 L 743.21484 723.31445 C 747.50827 725.32699 751.8476 726.33203 756.23047 726.33203 C 765.354 726.33203 773.06903 723.24602 779.375 717.07422 C 785.72569 710.90243 788.90039 703.36672 788.90039 694.4668 C 788.90039 688.38445 787.02237 682.07841 783.26562 675.54883 L 781.18555 671.92773 C 779.57551 669.11017 778.76953 666.78287 778.76953 664.94922 C 778.76953 662.80251 779.50851 660.96981 780.98438 659.44922 C 782.46023 657.92863 784.22594 657.16797 786.2832 657.16797 C 787.35656 657.16797 788.87788 657.50298 790.8457 658.17383 L 790.8457 632.07812 C 787.22312 630.82588 783.53409 630.19922 779.77734 630.19922 z M 917.09961 630.19922 C 906.72384 630.19922 898.40578 633.33055 892.14453 639.5918 C 885.928 645.85304 882.81836 654.19473 882.81836 664.61523 L 882.81836 724.05078 L 910.05469 724.05078 L 910.05469 665.55469 C 910.05469 659.96429 911.97803 657.16797 915.82422 657.16797 C 919.80459 657.16797 921.79492 659.96429 921.79492 665.55469 L 921.79492 724.05078 L 949.03125 724.05078 L 949.03125 665.55469 C 949.03125 654.15027 946.28025 645.40657 940.7793 639.32422 C 935.32307 633.24187 927.43067 630.19922 917.09961 630.19922 z M 1070.9238 630.19922 C 1059.7877 630.19922 1051.1347 633.33055 1044.9629 639.5918 C 1038.8358 645.80832 1035.7715 654.55202 1035.7715 665.82227 L 1035.7715 724.05078 L 1063.0078 724.05078 L 1063.0078 702.25 L 1070.8574 702.25 L 1070.8574 678.09961 L 1063.0078 678.09961 L 1063.0078 666.69336 C 1063.0078 660.34267 1065.1322 657.16797 1069.3809 657.16797 C 1071.5723 657.16797 1073.0936 657.86163 1073.9434 659.24805 C 1074.7931 660.63447 1075.2188 663.11551 1075.2188 666.69336 L 1075.2188 724.05078 L 1102.4551 724.05078 L 1102.4551 664.88281 C 1102.4551 653.07589 1099.8834 644.35582 1094.7402 638.7207 C 1089.5971 633.04086 1081.6574 630.19922 1070.9238 630.19922 z M 1399.9082 630.19922 C 1391.3661 630.19922 1384.0097 633.33055 1377.8379 639.5918 C 1371.7108 645.80832 1368.6465 653.23171 1368.6465 661.86328 C 1368.6465 669.01899 1370.6822 676.17632 1374.752 683.33203 C 1377.3012 687.84907 1378.5762 690.77744 1378.5762 692.11914 C 1378.5762 694.17641 1377.7702 695.89874 1376.1602 697.28516 C 1374.5948 698.62685 1372.6281 699.29688 1370.2578 699.29688 C 1368.2453 699.29687 1365.9416 698.46921 1363.3477 696.81445 L 1363.3477 723.31445 C 1367.6411 725.32699 1371.9785 726.33203 1376.3613 726.33203 C 1385.4849 726.33203 1393.1999 723.24602 1399.5059 717.07422 C 1405.8565 710.90243 1409.0312 703.36672 1409.0312 694.4668 C 1409.0312 688.38445 1407.1532 682.07841 1403.3965 675.54883 L 1401.3164 671.92773 C 1399.7063 669.11017 1398.9023 666.78287 1398.9023 664.94922 C 1398.9023 662.80251 1399.6394 660.96981 1401.1152 659.44922 C 1402.5911 657.92863 1404.3587 657.16797 1406.416 657.16797 C 1407.4894 657.16797 1409.0088 657.50298 1410.9766 658.17383 L 1410.9766 632.07812 C 1407.354 630.82588 1403.6649 630.19922 1399.9082 630.19922 z M 509.02344 632.48047 L 509.02344 724.05078 L 536.25977 724.05078 L 536.25977 658.77734 L 545.44922 658.77734 C 561.05761 658.77734 568.86133 665.01637 568.86133 677.49414 C 568.86133 690.77693 560.9236 697.41992 545.04688 697.41992 L 540.6875 697.41992 L 540.6875 724.32031 C 544.44425 724.49921 547.14993 724.58789 548.80469 724.58789 C 562.89249 724.58789 574.40888 720.2052 583.35352 711.43945 C 592.29816 702.67371 596.76953 691.35833 596.76953 677.49414 C 596.76953 663.00383 591.53749 651.53276 581.07227 643.08008 C 572.2618 636.01381 560.07343 632.48047 544.50977 632.48047 L 509.02344 632.48047 z M 636.55078 632.48047 C 627.42725 632.48047 620.33888 634.89646 615.28516 639.72656 C 610.27616 644.55666 607.77148 651.35339 607.77148 660.11914 L 607.77148 696.00977 C 607.77148 705.08857 610.43185 712.04294 615.75391 716.87305 C 621.07597 721.65843 628.76932 724.05078 638.83203 724.05078 L 660.23242 724.05078 L 660.23242 697.88867 L 641.91797 697.88867 C 638.74262 697.88867 636.63996 697.59703 635.61133 697.01562 C 634.58269 696.3895 634.06836 695.11646 634.06836 693.19336 C 634.06836 691.49388 634.56101 690.28588 635.54492 689.57031 C 636.57356 688.85474 638.29589 688.49609 640.71094 688.49609 L 658.48828 688.49609 L 658.48828 668.10352 L 643.46094 668.10352 C 640.59865 668.10352 638.60831 667.7685 637.49023 667.09766 C 636.37215 666.38208 635.8125 665.12877 635.8125 663.33984 C 635.8125 660.29866 638.16149 658.77734 642.85742 658.77734 L 660.23242 658.77734 L 660.23242 632.48047 L 636.55078 632.48047 z M 662.17773 632.48047 L 701.82422 729.28516 L 741.74023 632.48047 L 711.34961 632.48047 L 702.0918 661.05859 L 693.70703 632.48047 L 662.17773 632.48047 z M 839.08008 632.48047 L 839.08008 724.05078 L 866.31641 724.05078 L 866.31641 632.48047 L 839.08008 632.48047 z M 951.98242 632.48047 L 991.63086 729.28516 L 1031.5469 632.48047 L 1001.1562 632.48047 L 991.89844 661.05859 L 983.51367 632.48047 L 951.98242 632.48047 z M 1118.957 632.48047 L 1118.957 724.05078 L 1146.1934 724.05078 L 1146.1934 658.77734 L 1155.3848 658.77734 C 1170.9932 658.77734 1178.7969 665.01637 1178.7969 677.49414 C 1178.7969 690.77693 1170.8592 697.41992 1154.9824 697.41992 L 1150.6211 697.41992 L 1150.6211 724.32031 C 1154.3778 724.49921 1157.0835 724.58789 1158.7383 724.58789 C 1172.8261 724.58789 1184.3424 720.2052 1193.2871 711.43945 C 1202.2318 702.67371 1206.7051 691.35833 1206.7051 677.49414 C 1206.7051 663.00383 1201.4711 651.53276 1191.0059 643.08008 C 1182.1954 636.01381 1170.009 632.48047 1154.4453 632.48047 L 1118.957 632.48047 z M 1246.4863 632.48047 C 1237.3628 632.48047 1230.2725 634.89646 1225.2188 639.72656 C 1220.2097 644.55666 1217.707 651.35339 1217.707 660.11914 L 1217.707 696.00977 C 1217.707 705.08857 1220.3674 712.04294 1225.6895 716.87305 C 1231.0115 721.65843 1238.703 724.05078 1248.7656 724.05078 L 1270.166 724.05078 L 1270.166 697.88867 L 1251.8516 697.88867 C 1248.6762 697.88867 1246.5755 697.59703 1245.5469 697.01562 C 1244.5182 696.3895 1244.0039 695.11646 1244.0039 693.19336 C 1244.0039 691.49388 1244.4946 690.28588 1245.4785 689.57031 C 1246.5071 688.85474 1248.2295 688.49609 1250.6445 688.49609 L 1268.4219 688.49609 L 1268.4219 668.10352 L 1253.3945 668.10352 C 1250.5323 668.10352 1248.542 667.7685 1247.4238 667.09766 C 1246.3058 666.38208 1245.748 665.12877 1245.748 663.33984 C 1245.748 660.29866 1248.0951 658.77734 1252.791 658.77734 L 1270.166 658.77734 L 1270.166 632.48047 L 1246.4863 632.48047 z M 1285.8652 632.48047 L 1285.8652 724.05078 L 1313.1016 724.05078 L 1313.1016 657.10156 L 1317.9316 657.10156 C 1324.5507 657.10156 1327.8594 659.26928 1327.8594 663.60742 C 1327.8594 668.52697 1324.998 670.98828 1319.2734 670.98828 L 1317.125 670.98828 L 1317.125 694.53516 L 1330.3418 724.05078 L 1358.9199 724.05078 L 1343.2227 686.2832 C 1351.3175 679.93251 1355.3633 672.12879 1355.3633 662.87109 C 1355.3633 653.79229 1352.0999 646.29994 1345.5703 640.39648 C 1339.7116 635.11914 1331.4605 632.48047 1320.8164 632.48047 L 1285.8652 632.48047 z "
       style="font-style:normal;font-variant:normal;font-weight:normal;font-stretch:normal;font-size:medium;line-height:125%;font-family:'Bauhaus 93';-inkscape-font-specification:'Bauhaus 93, ';letter-spacing:0px;word-spacing:0px;fill:#ffffff;fill-opacity:1;stroke:none;stroke-width:1px;stroke-linecap:butt;stroke-linejoin:miter;stroke-opacity:1" />
    <g
       id="g4335"
       style="fill:#0a1564;stroke:#000000;fill-opacity:0.59233451;stroke-width:2;stroke-opacity:0.6"
       inkscape:export-xdpi="90"
       inkscape:export-ydpi="90">
      <path
         id="path4337"
         d="M779.77734 602.561412L673.03125 412.866102L637.88867 427.821172L757.70508 611.953992L779.77734 602.561412"
         style="fill:#0a1564;fill-opacity:0.59233451" />
      <path
         id="path4339"
         d="M757.70508 611.953992L637.88867 427.821172L623.25391 463.286022L748.51562 634.225472L757.70508 611.953992"
         style="fill:#0a1564;fill-opacity:0.59233451" />
      <path
         id="path4341"
         d="M748.51562 634.225472L623.25391 463.286022L632.97461 497.467662L754.61914 655.694222L748.51562 634.225472"
         style="fill:#0a1564;fill-opacity:0.59233451" />
      <path
         id="path4343"
         d="M754.61914 655.694222L632.97461 497.467662L639.0625 511.459852L758.44336 664.481332L754.61914 655.694222"
         style="fill:#0a1564;fill-opacity:0.59233451" />
      <path
         id="path4345"
         d="M758.44336 664.481332L639.0625 511.459852L635.2168 519.686412L756.0293 669.647352L758.44336 664.481332"
         style="fill:#0a1564;fill-opacity:0.59233451" />
      <path
         id="path4347"
         d="M756.0293 669.647352L635.2168 519.686412L625.81836 522.889532L750.125 671.659072L756.0293 669.647352"
         style="fill:#0a1564;fill-opacity:0.59233451" />
      <path
         id="path4349"
         d="M750.125 671.659072L625.81836 522.889532L614.81445 518.938362L743.21484 669.176642L750.125 671.659072"
         style="fill:#0a1564;fill-opacity:0.59233451" />
      <path
         id="path4351"
         d="M743.21484 669.176642L614.81445 518.938362L614.81445 561.131722L743.21484 695.676642L743.21484 669.176642"
         style="fill:#0a1564;fill-opacity:0.59233451" />
      <path
         id="path4353"
         d="M743.21484 695.676642L614.81445 561.131722L635.53906 565.938362L756.23047 698.694222L743.21484 695.676642"
         style="fill:#0a1564;fill-opacity:0.59233451" />
      <path
         id="path4355"
         d="M756.23047 698.694222L635.53906 565.938362L672.39062 551.198132L779.375 689.436412L756.23047 698.694222"
         style="fill:#0a1564;fill-opacity:0.59233451" />
      <path
         id="path4357"
         d="M779.375 689.436412L672.39062 551.198132L687.55859 515.200082L788.90039 666.828992L779.375 689.436412"
         style="fill:#0a1564;fill-opacity:0.59233451" />
      <path
         id="path4359"
         d="M788.90039 666.828992L687.55859 515.200082L678.58594 485.077032L783.26562 647.911022L788.90039 666.828992"
         style="fill:#0a1564;fill-opacity:0.59233451" />
      <path
         id="path4361"
         d="M783.26562 647.911022L678.58594 485.077032L675.27539 479.307502L781.18555 644.289922L783.26562 647.911022"
         style="fill:#0a1564;fill-opacity:0.59233451" />
      <path
         id="path4363"
         d="M781.18555 644.289922L675.27539 479.307502L671.42969 468.198132L778.76953 637.311412L781.18555 644.289922"
         style="fill:#0a1564;fill-opacity:0.59233451" />
      <path
         id="path4365"
         d="M778.76953 637.311412L671.42969 468.198132L674.95508 459.440312L780.98438 631.811412L778.76953 637.311412"
         style="fill:#0a1564;fill-opacity:0.59233451" />
      <path
         id="path4367"
         d="M780.98438 631.811412L674.95508 459.440312L683.39258 455.807502L786.2832 629.530162L780.98438 631.811412"
         style="fill:#0a1564;fill-opacity:0.59233451" />
      <path
         id="path4369"
         d="M786.2832 629.530162L683.39258 455.807502L690.65625 457.411022L790.8457 630.536022L786.2832 629.530162"
         style="fill:#0a1564;fill-opacity:0.59233451" />
      <path
         id="path4371"
         d="M790.8457 630.536022L690.65625 457.411022L690.65625 415.858282L790.8457 604.440312L790.8457 630.536022"
         style="fill:#0a1564;fill-opacity:0.59233451" />
      <path
         id="path4373"
         d="M790.8457 604.440312L690.65625 415.858282L673.03125 412.866102L779.77734 602.561412L790.8457 604.440312"
         style="fill:#0a1564;fill-opacity:0.59233451" />
      <path
         id="path4375"
         d="M779.77734 602.561412L673.03125 412.866102L673.03125 412.866102L779.77734 602.561412L779.77734 602.561412"
         style="fill:#0a1564;fill-opacity:0.59233451" />
      <path
         id="path4377"
         d="M779.77734 602.561412L673.03125 412.866102L673.03125 412.866102L779.77734 602.561412L779.77734 602.561412"
         style="fill:#0a1564;fill-opacity:0.59233451" />
      <path
         id="path4379"
         d="M917.09961 602.561412L891.68945 412.866102L851.95312 427.821172L892.14453 611.953992L917.09961 602.561412"
         style="fill:#0a1564;fill-opacity:0.59233451" />
      <path
         id="path4381"
         d="M892.14453 611.953992L851.95312 427.821172L837.10547 467.664922L882.81836 636.977422L892.14453 611.953992"
         style="fill:#0a1564;fill-opacity:0.59233451" />
      <path
         id="path4383"
         d="M882.81836 636.977422L837.10547 467.664922L837.10547 562.305552L882.81836 696.412972L882.81836 636.977422"
         style="fill:#0a1564;fill-opacity:0.59233451" />
      <path
         id="path4385"
         d="M882.81836 696.412972L837.10547 562.305552L880.47266 562.305552L910.05469 696.412972L882.81836 696.412972"
         style="fill:#0a1564;fill-opacity:0.59233451" />
      <path
         id="path4387"
         d="M910.05469 696.412972L880.47266 562.305552L880.47266 469.161022L910.05469 637.916882L910.05469 696.412972"
         style="fill:#0a1564;fill-opacity:0.59233451" />
      <path
         id="path4389"
         d="M910.05469 637.916882L880.47266 469.161022L889.66016 455.807502L915.82422 629.530162L910.05469 637.916882"
         style="fill:#0a1564;fill-opacity:0.59233451" />
      <path
         id="path4391"
         d="M915.82422 629.530162L889.66016 455.807502L899.16602 469.161022L921.79492 637.916882L915.82422 629.530162"
         style="fill:#0a1564;fill-opacity:0.59233451" />
      <path
         id="path4393"
         d="M921.79492 637.916882L899.16602 469.161022L899.16602 562.305552L921.79492 696.412972L921.79492 637.916882"
         style="fill:#0a1564;fill-opacity:0.59233451" />
      <path
         id="path4395"
         d="M921.79492 696.412972L899.16602 562.305552L942.53516 562.305552L949.03125 696.412972L921.79492 696.412972"
         style="fill:#0a1564;fill-opacity:0.59233451" />
      <path
         id="path4397"
         d="M949.03125 696.412972L942.53516 562.305552L942.53516 469.161022L949.03125 637.916882L949.03125 696.412972"
         style="fill:#0a1564;fill-opacity:0.59233451" />
      <path
         id="path4399"
         d="M949.03125 637.916882L942.53516 469.161022L929.39648 427.393442L940.7793 611.686412L949.03125 637.916882"
         style="fill:#0a1564;fill-opacity:0.59233451" />
      <path
         id="path4401"
         d="M940.7793 611.686412L929.39648 427.393442L891.68945 412.866102L917.09961 602.561412L940.7793 611.686412"
         style="fill:#0a1564;fill-opacity:0.59233451" />
      <path
         id="path4403"
         d="M917.09961 602.561412L891.68945 412.866102L891.68945 412.866102L917.09961 602.561412L917.09961 602.561412"
         style="fill:#0a1564;fill-opacity:0.59233451" />
      <path
         id="path4405"
         d="M917.09961 602.561412L891.68945 412.866102L891.68945 412.866102L917.09961 602.561412L917.09961 602.561412"
         style="fill:#0a1564;fill-opacity:0.59233451" />
      <path
         id="path4407"
         d="M1070.9238 602.561412L1136.625 412.866102L1095.2852 427.821172L1044.9629 611.953992L1070.9238 602.561412"
         style="fill:#0a1564;fill-opacity:0.59233451" />
      <path
         id="path4409"
         d="M1044.9629 611.953992L1095.2852 427.821172L1080.6523 469.586802L1035.7715 638.184462L1044.9629 611.953992"
         style="fill:#0a1564;fill-opacity:0.59233451" />
      <path
         id="path4411"
         d="M1035.7715 638.184462L1080.6523 469.586802L1080.6523 562.305552L1035.7715 696.412972L1035.7715 638.184462"
         style="fill:#0a1564;fill-opacity:0.59233451" />
      <path
         id="path4413"
         d="M1035.7715 696.412972L1080.6523 562.305552L1124.0195 562.305552L1063.0078 696.412972L1035.7715 696.412972"
         style="fill:#0a1564;fill-opacity:0.59233451" />
      <path
         id="path4415"
         d="M1063.0078 696.412972L1124.0195 562.305552L1124.0195 527.590712L1063.0078 674.612192L1063.0078 696.412972"
         style="fill:#0a1564;fill-opacity:0.59233451" />
      <path
         id="path4417"
         d="M1063.0078 674.612192L1124.0195 527.590712L1136.5176 527.590712L1070.8574 674.612192L1063.0078 674.612192"
         style="fill:#0a1564;fill-opacity:0.59233451" />
      <path
         id="path4419"
         d="M1070.8574 674.612192L1136.5176 527.590712L1136.5176 489.135632L1070.8574 650.461802L1070.8574 674.612192"
         style="fill:#0a1564;fill-opacity:0.59233451" />
      <path
         id="path4421"
         d="M1070.8574 650.461802L1136.5176 489.135632L1124.0195 489.135632L1063.0078 650.461802L1070.8574 650.461802"
         style="fill:#0a1564;fill-opacity:0.59233451" />
      <path
         id="path4423"
         d="M1063.0078 650.461802L1124.0195 489.135632L1124.0195 470.975472L1063.0078 639.055552L1063.0078 650.461802"
         style="fill:#0a1564;fill-opacity:0.59233451" />
      <path
         id="path4425"
         d="M1063.0078 639.055552L1124.0195 470.975472L1134.168 455.807502L1069.3809 629.530162L1063.0078 639.055552"
         style="fill:#0a1564;fill-opacity:0.59233451" />
      <path
         id="path4427"
         d="M1069.3809 629.530162L1134.168 455.807502L1141.4316 459.120002L1073.9434 631.610242L1069.3809 629.530162"
         style="fill:#0a1564;fill-opacity:0.59233451" />
      <path
         id="path4429"
         d="M1073.9434 631.610242L1141.4316 459.120002L1143.4609 470.975472L1075.2188 639.055552L1073.9434 631.610242"
         style="fill:#0a1564;fill-opacity:0.59233451" />
      <path
         id="path4431"
         d="M1075.2188 639.055552L1143.4609 470.975472L1143.4609 562.305552L1075.2188 696.412972L1075.2188 639.055552"
         style="fill:#0a1564;fill-opacity:0.59233451" />
      <path
         id="path4433"
         d="M1075.2188 696.412972L1143.4609 562.305552L1186.8301 562.305552L1102.4551 696.412972L1075.2188 696.412972"
         style="fill:#0a1564;fill-opacity:0.59233451" />
      <path
         id="path4435"
         d="M1102.4551 696.412972L1186.8301 562.305552L1186.8301 468.092662L1102.4551 637.245002L1102.4551 696.412972"
         style="fill:#0a1564;fill-opacity:0.59233451" />
      <path
         id="path4437"
         d="M1102.4551 637.245002L1186.8301 468.092662L1174.5449 426.432502L1094.7402 611.082892L1102.4551 637.245002"
         style="fill:#0a1564;fill-opacity:0.59233451" />
      <path
         id="path4439"
         d="M1094.7402 611.082892L1174.5449 426.432502L1136.625 412.866102L1070.9238 602.561412L1094.7402 611.082892"
         style="fill:#0a1564;fill-opacity:0.59233451" />
      <path
         id="path4441"
         d="M1070.9238 602.561412L1136.625 412.866102L1136.625 412.866102L1070.9238 602.561412L1070.9238 602.561412"
         style="fill:#0a1564;fill-opacity:0.59233451" />
      <path
         id="path4443"
         d="M1070.9238 602.561412L1136.625 412.866102L1136.625 412.866102L1070.9238 602.561412L1070.9238 602.561412"
         style="fill:#0a1564;fill-opacity:0.59233451" />
      <path
         id="path4445"
         d="M1399.9082 602.561412L1660.4629 412.866102L1625.3203 427.821172L1377.8379 611.953992L1399.9082 602.561412"
         style="fill:#0a1564;fill-opacity:0.59233451" />
      <path
         id="path4447"
         d="M1377.8379 611.953992L1625.3203 427.821172L1610.6855 463.286022L1368.6465 634.225472L1377.8379 611.953992"
         style="fill:#0a1564;fill-opacity:0.59233451" />
      <path
         id="path4449"
         d="M1368.6465 634.225472L1610.6855 463.286022L1620.4062 497.467662L1374.752 655.694222L1368.6465 634.225472"
         style="fill:#0a1564;fill-opacity:0.59233451" />
      <path
         id="path4451"
         d="M1374.752 655.694222L1620.4062 497.467662L1626.4961 511.459852L1378.5762 664.481332L1374.752 655.694222"
         style="fill:#0a1564;fill-opacity:0.59233451" />
      <path
         id="path4453"
         d="M1378.5762 664.481332L1626.4961 511.459852L1622.6504 519.686412L1376.1602 669.647352L1378.5762 664.481332"
         style="fill:#0a1564;fill-opacity:0.59233451" />
      <path
         id="path4455"
         d="M1376.1602 669.647352L1622.6504 519.686412L1613.25 522.889532L1370.2578 671.659072L1376.1602 669.647352"
         style="fill:#0a1564;fill-opacity:0.59233451" />
      <path
         id="path4457"
         d="M1370.2578 671.659072L1613.25 522.889532L1602.248 518.938362L1363.3477 669.176642L1370.2578 671.659072"
         style="fill:#0a1564;fill-opacity:0.59233451" />
      <path
         id="path4459"
         d="M1363.3477 669.176642L1602.248 518.938362L1602.248 561.131722L1363.3477 695.676642L1363.3477 669.176642"
         style="fill:#0a1564;fill-opacity:0.59233451" />
      <path
         id="path4461"
         d="M1363.3477 695.676642L1602.248 561.131722L1622.9707 565.938362L1376.3613 698.694222L1363.3477 695.676642"
         style="fill:#0a1564;fill-opacity:0.59233451" />
      <path
         id="path4463"
         d="M1376.3613 698.694222L1622.9707 565.938362L1659.8223 551.198132L1399.5059 689.436412L1376.3613 698.694222"
         style="fill:#0a1564;fill-opacity:0.59233451" />
      <path
         id="path4465"
         d="M1399.5059 689.436412L1659.8223 551.198132L1674.9902 515.200082L1409.0312 666.828992L1399.5059 689.436412"
         style="fill:#0a1564;fill-opacity:0.59233451" />
      <path
         id="path4467"
         d="M1409.0312 666.828992L1674.9902 515.200082L1666.0176 485.077032L1403.3965 647.911022L1409.0312 666.828992"
         style="fill:#0a1564;fill-opacity:0.59233451" />
      <path
         id="path4469"
         d="M1403.3965 647.911022L1666.0176 485.077032L1662.707 479.307502L1401.3164 644.289922L1403.3965 647.911022"
         style="fill:#0a1564;fill-opacity:0.59233451" />
      <path
         id="path4471"
         d="M1401.3164 644.289922L1662.707 479.307502L1658.8613 468.198132L1398.9023 637.311412L1401.3164 644.289922"
         style="fill:#0a1564;fill-opacity:0.59233451" />
      <path
         id="path4473"
         d="M1398.9023 637.311412L1658.8613 468.198132L1662.3867 459.440312L1401.1152 631.811412L1398.9023 637.311412"
         style="fill:#0a1564;fill-opacity:0.59233451" />
      <path
         id="path4475"
         d="M1401.1152 631.811412L1662.3867 459.440312L1670.8262 455.807502L1406.416 629.530162L1401.1152 631.811412"
         style="fill:#0a1564;fill-opacity:0.59233451" />
      <path
         id="path4477"
         d="M1406.416 629.530162L1670.8262 455.807502L1678.0898 457.411022L1410.9766 630.536022L1406.416 629.530162"
         style="fill:#0a1564;fill-opacity:0.59233451" />
      <path
         id="path4479"
         d="M1410.9766 630.536022L1678.0898 457.411022L1678.0898 415.858282L1410.9766 604.440312L1410.9766 630.536022"
         style="fill:#0a1564;fill-opacity:0.59233451" />
      <path
         id="path4481"
         d="M1410.9766 604.440312L1678.0898 415.858282L1660.4629 412.866102L1399.9082 602.561412L1410.9766 604.440312"
         style="fill:#0a1564;fill-opacity:0.59233451" />
      <path
         id="path4483"
         d="M1399.9082 602.561412L1660.4629 412.866102L1660.4629 412.866102L1399.9082 602.561412L1399.9082 602.561412"
         style="fill:#0a1564;fill-opacity:0.59233451" />
      <path
         id="path4485"
         d="M1399.9082 602.561412L1660.4629 412.866102L1660.4629 412.866102L1399.9082 602.561412L1399.9082 602.561412"
         style="fill:#0a1564;fill-opacity:0.59233451" />
      <path
         id="path4487"
         d="M509.02344 604.842662L241.91211 416.498912L241.91211 562.305552L509.02344 696.412972L509.02344 604.842662"
         style="fill:#0a1564;fill-opacity:0.59233451" />
      <path
         id="path4489"
         d="M509.02344 696.412972L241.91211 562.305552L285.2793 562.305552L536.25977 696.412972L509.02344 696.412972"
         style="fill:#0a1564;fill-opacity:0.59233451" />
      <path
         id="path4491"
         d="M536.25977 696.412972L285.2793 562.305552L285.2793 458.371962L536.25977 631.139532L536.25977 696.412972"
         style="fill:#0a1564;fill-opacity:0.59233451" />
      <path
         id="path4493"
         d="M536.25977 631.139532L285.2793 458.371962L299.91406 458.371962L545.44922 631.139532L536.25977 631.139532"
         style="fill:#0a1564;fill-opacity:0.59233451" />
      <path
         id="path4495"
         d="M545.44922 631.139532L299.91406 458.371962L337.19336 488.174692L568.86133 649.856332L545.44922 631.139532"
         style="fill:#0a1564;fill-opacity:0.59233451" />
      <path
         id="path4497"
         d="M568.86133 649.856332L337.19336 488.174692L299.27344 519.899302L545.04688 669.782112L568.86133 649.856332"
         style="fill:#0a1564;fill-opacity:0.59233451" />
      <path
         id="path4499"
         d="M545.04688 669.782112L299.27344 519.899302L292.33008 519.899302L540.6875 669.782112L545.04688 669.782112"
         style="fill:#0a1564;fill-opacity:0.59233451" />
      <path
         id="path4501"
         d="M540.6875 669.782112L292.33008 519.899302L292.33008 562.733282L540.6875 696.682502L540.6875 669.782112"
         style="fill:#0a1564;fill-opacity:0.59233451" />
      <path
         id="path4503"
         d="M540.6875 696.682502L292.33008 562.733282L305.25391 563.161022L548.80469 696.950082L540.6875 696.682502"
         style="fill:#0a1564;fill-opacity:0.59233451" />
      <path
         id="path4505"
         d="M548.80469 696.950082L305.25391 563.161022L360.26562 542.223522L583.35352 683.801642L548.80469 696.950082"
         style="fill:#0a1564;fill-opacity:0.59233451" />
      <path
         id="path4507"
         d="M583.35352 683.801642L360.26562 542.223522L381.63086 488.174692L596.76953 649.856332L583.35352 683.801642"
         style="fill:#0a1564;fill-opacity:0.59233451" />
      <path
         id="path4509"
         d="M596.76953 649.856332L381.63086 488.174692L356.63477 433.375862L581.07227 615.442272L596.76953 649.856332"
         style="fill:#0a1564;fill-opacity:0.59233451" />
      <path
         id="path4511"
         d="M581.07227 615.442272L356.63477 433.375862L298.41797 416.498912L544.50977 604.842662L581.07227 615.442272"
         style="fill:#0a1564;fill-opacity:0.59233451" />
      <path
         id="path4513"
         d="M544.50977 604.842662L298.41797 416.498912L241.91211 416.498912L509.02344 604.842662L544.50977 604.842662"
         style="fill:#0a1564;fill-opacity:0.59233451" />
      <path
         id="path4515"
         d="M509.02344 604.842662L241.91211 416.498912L241.91211 416.498912L509.02344 604.842662L509.02344 604.842662"
         style="fill:#0a1564;fill-opacity:0.59233451" />
      <path
         id="path4517"
         d="M509.02344 604.842662L241.91211 416.498912L241.91211 416.498912L509.02344 604.842662L509.02344 604.842662"
         style="fill:#0a1564;fill-opacity:0.59233451" />
      <path
         id="path4519"
         d="M636.55078 604.842662L444.97266 416.498912L411.11133 428.036022L615.28516 612.088752L636.55078 604.842662"
         style="fill:#0a1564;fill-opacity:0.59233451" />
      <path
         id="path4521"
         d="M615.28516 612.088752L411.11133 428.036022L399.14844 460.508672L607.77148 632.481332L615.28516 612.088752"
         style="fill:#0a1564;fill-opacity:0.59233451" />
      <path
         id="path4523"
         d="M607.77148 632.481332L399.14844 460.508672L399.14844 517.655162L607.77148 668.371962L607.77148 632.481332"
         style="fill:#0a1564;fill-opacity:0.59233451" />
      <path
         id="path4525"
         d="M607.77148 668.371962L399.14844 517.655162L411.85938 550.875862L615.75391 689.235242L607.77148 668.371962"
         style="fill:#0a1564;fill-opacity:0.59233451" />
      <path
         id="path4527"
         d="M615.75391 689.235242L411.85938 550.875862L448.60547 562.305552L638.83203 696.412972L615.75391 689.235242"
         style="fill:#0a1564;fill-opacity:0.59233451" />
      <path
         id="path4529"
         d="M638.83203 696.412972L448.60547 562.305552L482.67969 562.305552L660.23242 696.412972L638.83203 696.412972"
         style="fill:#0a1564;fill-opacity:0.59233451" />
      <path
         id="path4531"
         d="M660.23242 696.412972L482.67969 562.305552L482.67969 520.647352L660.23242 670.250862L660.23242 696.412972"
         style="fill:#0a1564;fill-opacity:0.59233451" />
      <path
         id="path4533"
         d="M660.23242 670.250862L482.67969 520.647352L453.51953 520.647352L641.91797 670.250862L660.23242 670.250862"
         style="fill:#0a1564;fill-opacity:0.59233451" />
      <path
         id="path4535"
         d="M641.91797 670.250862L453.51953 520.647352L443.47852 519.258672L635.61133 669.377812L641.91797 670.250862"
         style="fill:#0a1564;fill-opacity:0.59233451" />
      <path
         id="path4537"
         d="M635.61133 669.377812L443.47852 519.258672L441.02148 513.168832L634.06836 665.555552L635.61133 669.377812"
         style="fill:#0a1564;fill-opacity:0.59233451" />
      <path
         id="path4539"
         d="M634.06836 665.555552L441.02148 513.168832L443.37109 507.401252L635.54492 661.932502L634.06836 665.555552"
         style="fill:#0a1564;fill-opacity:0.59233451" />
      <path
         id="path4541"
         d="M635.54492 661.932502L443.37109 507.401252L451.5957 505.692272L640.71094 660.858282L635.54492 661.932502"
         style="fill:#0a1564;fill-opacity:0.59233451" />
      <path
         id="path4543"
         d="M640.71094 660.858282L451.5957 505.692272L479.90234 505.692272L658.48828 660.858282L640.71094 660.858282"
         style="fill:#0a1564;fill-opacity:0.59233451" />
      <path
         id="path4545"
         d="M658.48828 660.858282L479.90234 505.692272L479.90234 473.219612L658.48828 640.465712L658.48828 660.858282"
         style="fill:#0a1564;fill-opacity:0.59233451" />
      <path
         id="path4547"
         d="M658.48828 640.465712L479.90234 473.219612L455.97656 473.219612L643.46094 640.465712L658.48828 640.465712"
         style="fill:#0a1564;fill-opacity:0.59233451" />
      <path
         id="path4549"
         d="M643.46094 640.465712L455.97656 473.219612L446.46875 471.618052L637.49023 639.459852L643.46094 640.465712"
         style="fill:#0a1564;fill-opacity:0.59233451" />
      <path
         id="path4551"
         d="M637.49023 639.459852L446.46875 471.618052L443.79883 465.635632L635.8125 635.702032L637.49023 639.459852"
         style="fill:#0a1564;fill-opacity:0.59233451" />
      <path
         id="path4553"
         d="M635.8125 635.702032L443.79883 465.635632L455.01367 458.371962L642.85742 631.139532L635.8125 635.702032"
         style="fill:#0a1564;fill-opacity:0.59233451" />
      <path
         id="path4555"
         d="M642.85742 631.139532L455.01367 458.371962L482.67969 458.371962L660.23242 631.139532L642.85742 631.139532"
         style="fill:#0a1564;fill-opacity:0.59233451" />
      <path
         id="path4557"
         d="M660.23242 631.139532L482.67969 458.371962L482.67969 416.498912L660.23242 604.842662L660.23242 631.139532"
         style="fill:#0a1564;fill-opacity:0.59233451" />
      <path
         id="path4559"
         d="M660.23242 604.842662L482.67969 416.498912L444.97266 416.498912L636.55078 604.842662L660.23242 604.842662"
         style="fill:#0a1564;fill-opacity:0.59233451" />
      <path
         id="path4561"
         d="M636.55078 604.842662L444.97266 416.498912L444.97266 416.498912L636.55078 604.842662L636.55078 604.842662"
         style="fill:#0a1564;fill-opacity:0.59233451" />
      <path
         id="path4563"
         d="M636.55078 604.842662L444.97266 416.498912L444.97266 416.498912L636.55078 604.842662L636.55078 604.842662"
         style="fill:#0a1564;fill-opacity:0.59233451" />
      <path
         id="path4565"
         d="M662.17773 604.842662L485.77734 416.498912L548.9082 570.637582L701.82422 701.647352L662.17773 604.842662"
         style="fill:#0a1564;fill-opacity:0.59233451" />
      <path
         id="path4567"
         d="M701.82422 701.647352L548.9082 570.637582L612.46484 416.498912L741.74023 604.842662L701.82422 701.647352"
         style="fill:#0a1564;fill-opacity:0.59233451" />
      <path
         id="path4569"
         d="M741.74023 604.842662L612.46484 416.498912L564.07617 416.498912L711.34961 604.842662L741.74023 604.842662"
         style="fill:#0a1564;fill-opacity:0.59233451" />
      <path
         id="path4571"
         d="M711.34961 604.842662L564.07617 416.498912L549.33594 462.002812L702.0918 633.420782L711.34961 604.842662"
         style="fill:#0a1564;fill-opacity:0.59233451" />
      <path
         id="path4573"
         d="M702.0918 633.420782L549.33594 462.002812L535.98242 416.498912L693.70703 604.842662L702.0918 633.420782"
         style="fill:#0a1564;fill-opacity:0.59233451" />
      <path
         id="path4575"
         d="M693.70703 604.842662L535.98242 416.498912L485.77734 416.498912L662.17773 604.842662L693.70703 604.842662"
         style="fill:#0a1564;fill-opacity:0.59233451" />
      <path
         id="path4577"
         d="M662.17773 604.842662L485.77734 416.498912L485.77734 416.498912L662.17773 604.842662L662.17773 604.842662"
         style="fill:#0a1564;fill-opacity:0.59233451" />
      <path
         id="path4579"
         d="M662.17773 604.842662L485.77734 416.498912L485.77734 416.498912L662.17773 604.842662L662.17773 604.842662"
         style="fill:#0a1564;fill-opacity:0.59233451" />
      <path
         id="path4581"
         d="M839.08008 604.842662L767.45898 416.498912L767.45898 562.305552L839.08008 696.412972L839.08008 604.842662"
         style="fill:#0a1564;fill-opacity:0.59233451" />
      <path
         id="path4583"
         d="M839.08008 696.412972L767.45898 562.305552L810.82812 562.305552L866.31641 696.412972L839.08008 696.412972"
         style="fill:#0a1564;fill-opacity:0.59233451" />
      <path
         id="path4585"
         d="M866.31641 696.412972L810.82812 562.305552L810.82812 416.498912L866.31641 604.842662L866.31641 696.412972"
         style="fill:#0a1564;fill-opacity:0.59233451" />
      <path
         id="path4587"
         d="M866.31641 604.842662L810.82812 416.498912L767.45898 416.498912L839.08008 604.842662L866.31641 604.842662"
         style="fill:#0a1564;fill-opacity:0.59233451" />
      <path
         id="path4589"
         d="M839.08008 604.842662L767.45898 416.498912L767.45898 416.498912L839.08008 604.842662L839.08008 604.842662"
         style="fill:#0a1564;fill-opacity:0.59233451" />
      <path
         id="path4591"
         d="M839.08008 604.842662L767.45898 416.498912L767.45898 416.498912L839.08008 604.842662L839.08008 604.842662"
         style="fill:#0a1564;fill-opacity:0.59233451" />
      <path
         id="path4593"
         d="M951.98242 604.842662L947.23438 416.498912L1010.3652 570.637582L991.63086 701.647352L951.98242 604.842662"
         style="fill:#0a1564;fill-opacity:0.59233451" />
      <path
         id="path4595"
         d="M991.63086 701.647352L1010.3652 570.637582L1073.9219 416.498912L1031.5469 604.842662L991.63086 701.647352"
         style="fill:#0a1564;fill-opacity:0.59233451" />
      <path
         id="path4597"
         d="M1031.5469 604.842662L1073.9219 416.498912L1025.5332 416.498912L1001.1562 604.842662L1031.5469 604.842662"
         style="fill:#0a1564;fill-opacity:0.59233451" />
      <path
         id="path4599"
         d="M1001.1562 604.842662L1025.5332 416.498912L1010.793 462.002812L991.89844 633.420782L1001.1562 604.842662"
         style="fill:#0a1564;fill-opacity:0.59233451" />
      <path
         id="path4601"
         d="M991.89844 633.420782L1010.793 462.002812L997.43945 416.498912L983.51367 604.842662L991.89844 633.420782"
         style="fill:#0a1564;fill-opacity:0.59233451" />
      <path
         id="path4603"
         d="M983.51367 604.842662L997.43945 416.498912L947.23438 416.498912L951.98242 604.842662L983.51367 604.842662"
         style="fill:#0a1564;fill-opacity:0.59233451" />
      <path
         id="path4605"
         d="M951.98242 604.842662L947.23438 416.498912L947.23438 416.498912L951.98242 604.842662L951.98242 604.842662"
         style="fill:#0a1564;fill-opacity:0.59233451" />
      <path
         id="path4607"
         d="M951.98242 604.842662L947.23438 416.498912L947.23438 416.498912L951.98242 604.842662L951.98242 604.842662"
         style="fill:#0a1564;fill-opacity:0.59233451" />
      <path
         id="path4609"
         d="M1118.957 604.842662L1213.1074 416.498912L1213.1074 562.305552L1118.957 696.412972L1118.957 604.842662"
         style="fill:#0a1564;fill-opacity:0.59233451" />
      <path
         id="path4611"
         d="M1118.957 696.412972L1213.1074 562.305552L1256.4746 562.305552L1146.1934 696.412972L1118.957 696.412972"
         style="fill:#0a1564;fill-opacity:0.59233451" />
      <path
         id="path4613"
         d="M1146.1934 696.412972L1256.4746 562.305552L1256.4746 458.371962L1146.1934 631.139532L1146.1934 696.412972"
         style="fill:#0a1564;fill-opacity:0.59233451" />
      <path
         id="path4615"
         d="M1146.1934 631.139532L1256.4746 458.371962L1271.1094 458.371962L1155.3848 631.139532L1146.1934 631.139532"
         style="fill:#0a1564;fill-opacity:0.59233451" />
      <path
         id="path4617"
         d="M1155.3848 631.139532L1271.1094 458.371962L1308.3887 488.174692L1178.7969 649.856332L1155.3848 631.139532"
         style="fill:#0a1564;fill-opacity:0.59233451" />
      <path
         id="path4619"
         d="M1178.7969 649.856332L1308.3887 488.174692L1270.4688 519.899302L1154.9824 669.782112L1178.7969 649.856332"
         style="fill:#0a1564;fill-opacity:0.59233451" />
      <path
         id="path4621"
         d="M1154.9824 669.782112L1270.4688 519.899302L1263.5254 519.899302L1150.6211 669.782112L1154.9824 669.782112"
         style="fill:#0a1564;fill-opacity:0.59233451" />
      <path
         id="path4623"
         d="M1150.6211 669.782112L1263.5254 519.899302L1263.5254 562.733282L1150.6211 696.682502L1150.6211 669.782112"
         style="fill:#0a1564;fill-opacity:0.59233451" />
      <path
         id="path4625"
         d="M1150.6211 696.682502L1263.5254 562.733282L1276.4512 563.161022L1158.7383 696.950082L1150.6211 696.682502"
         style="fill:#0a1564;fill-opacity:0.59233451" />
      <path
         id="path4627"
         d="M1158.7383 696.950082L1276.4512 563.161022L1331.4629 542.223522L1193.2871 683.801642L1158.7383 696.950082"
         style="fill:#0a1564;fill-opacity:0.59233451" />
      <path
         id="path4629"
         d="M1193.2871 683.801642L1331.4629 542.223522L1352.8262 488.174692L1206.7051 649.856332L1193.2871 683.801642"
         style="fill:#0a1564;fill-opacity:0.59233451" />
      <path
         id="path4631"
         d="M1206.7051 649.856332L1352.8262 488.174692L1327.8301 433.375862L1191.0059 615.442272L1206.7051 649.856332"
         style="fill:#0a1564;fill-opacity:0.59233451" />
      <path
         id="path4633"
         d="M1191.0059 615.442272L1327.8301 433.375862L1269.6133 416.498912L1154.4453 604.842662L1191.0059 615.442272"
         style="fill:#0a1564;fill-opacity:0.59233451" />
      <path
         id="path4635"
         d="M1154.4453 604.842662L1269.6133 416.498912L1213.1074 416.498912L1118.957 604.842662L1154.4453 604.842662"
         style="fill:#0a1564;fill-opacity:0.59233451" />
      <path
         id="path4637"
         d="M1118.957 604.842662L1213.1074 416.498912L1213.1074 416.498912L1118.957 604.842662L1118.957 604.842662"
         style="fill:#0a1564;fill-opacity:0.59233451" />
      <path
         id="path4639"
         d="M1118.957 604.842662L1213.1074 416.498912L1213.1074 416.498912L1118.957 604.842662L1118.957 604.842662"
         style="fill:#0a1564;fill-opacity:0.59233451" />
      <path
         id="path4641"
         d="M1246.4863 604.842662L1416.1699 416.498912L1382.3086 428.036022L1225.2188 612.088752L1246.4863 604.842662"
         style="fill:#0a1564;fill-opacity:0.59233451" />
      <path
         id="path4643"
         d="M1225.2188 612.088752L1382.3086 428.036022L1370.3438 460.508672L1217.707 632.481332L1225.2188 612.088752"
         style="fill:#0a1564;fill-opacity:0.59233451" />
      <path
         id="path4645"
         d="M1217.707 632.481332L1370.3438 460.508672L1370.3438 517.655162L1217.707 668.371962L1217.707 632.481332"
         style="fill:#0a1564;fill-opacity:0.59233451" />
      <path
         id="path4647"
         d="M1217.707 668.371962L1370.3438 517.655162L1383.0547 550.875862L1225.6895 689.235242L1217.707 668.371962"
         style="fill:#0a1564;fill-opacity:0.59233451" />
      <path
         id="path4649"
         d="M1225.6895 689.235242L1383.0547 550.875862L1419.8008 562.305552L1248.7656 696.412972L1225.6895 689.235242"
         style="fill:#0a1564;fill-opacity:0.59233451" />
      <path
         id="path4651"
         d="M1248.7656 696.412972L1419.8008 562.305552L1453.877 562.305552L1270.166 696.412972L1248.7656 696.412972"
         style="fill:#0a1564;fill-opacity:0.59233451" />
      <path
         id="path4653"
         d="M1270.166 696.412972L1453.877 562.305552L1453.877 520.647352L1270.166 670.250862L1270.166 696.412972"
         style="fill:#0a1564;fill-opacity:0.59233451" />
      <path
         id="path4655"
         d="M1270.166 670.250862L1453.877 520.647352L1424.7148 520.647352L1251.8516 670.250862L1270.166 670.250862"
         style="fill:#0a1564;fill-opacity:0.59233451" />
      <path
         id="path4657"
         d="M1251.8516 670.250862L1424.7148 520.647352L1414.6738 519.258672L1245.5469 669.377812L1251.8516 670.250862"
         style="fill:#0a1564;fill-opacity:0.59233451" />
      <path
         id="path4659"
         d="M1245.5469 669.377812L1414.6738 519.258672L1412.2168 513.168832L1244.0039 665.555552L1245.5469 669.377812"
         style="fill:#0a1564;fill-opacity:0.59233451" />
      <path
         id="path4661"
         d="M1244.0039 665.555552L1412.2168 513.168832L1414.5664 507.401252L1245.4785 661.932502L1244.0039 665.555552"
         style="fill:#0a1564;fill-opacity:0.59233451" />
      <path
         id="path4663"
         d="M1245.4785 661.932502L1414.5664 507.401252L1422.793 505.692272L1250.6445 660.858282L1245.4785 661.932502"
         style="fill:#0a1564;fill-opacity:0.59233451" />
      <path
         id="path4665"
         d="M1250.6445 660.858282L1422.793 505.692272L1451.0996 505.692272L1268.4219 660.858282L1250.6445 660.858282"
         style="fill:#0a1564;fill-opacity:0.59233451" />
      <path
         id="path4667"
         d="M1268.4219 660.858282L1451.0996 505.692272L1451.0996 473.219612L1268.4219 640.465712L1268.4219 660.858282"
         style="fill:#0a1564;fill-opacity:0.59233451" />
      <path
         id="path4669"
         d="M1268.4219 640.465712L1451.0996 473.219612L1427.1719 473.219612L1253.3945 640.465712L1268.4219 640.465712"
         style="fill:#0a1564;fill-opacity:0.59233451" />
      <path
         id="path4671"
         d="M1253.3945 640.465712L1427.1719 473.219612L1417.6641 471.618052L1247.4238 639.459852L1253.3945 640.465712"
         style="fill:#0a1564;fill-opacity:0.59233451" />
      <path
         id="path4673"
         d="M1247.4238 639.459852L1417.6641 471.618052L1414.9941 465.635632L1245.748 635.702032L1247.4238 639.459852"
         style="fill:#0a1564;fill-opacity:0.59233451" />
      <path
         id="path4675"
         d="M1245.748 635.702032L1414.9941 465.635632L1426.2109 458.371962L1252.791 631.139532L1245.748 635.702032"
         style="fill:#0a1564;fill-opacity:0.59233451" />
      <path
         id="path4677"
         d="M1252.791 631.139532L1426.2109 458.371962L1453.877 458.371962L1270.166 631.139532L1252.791 631.139532"
         style="fill:#0a1564;fill-opacity:0.59233451" />
      <path
         id="path4679"
         d="M1270.166 631.139532L1453.877 458.371962L1453.877 416.498912L1270.166 604.842662L1270.166 631.139532"
         style="fill:#0a1564;fill-opacity:0.59233451" />
      <path
         id="path4681"
         d="M1270.166 604.842662L1453.877 416.498912L1416.1699 416.498912L1246.4863 604.842662L1270.166 604.842662"
         style="fill:#0a1564;fill-opacity:0.59233451" />
      <path
         id="path4683"
         d="M1246.4863 604.842662L1416.1699 416.498912L1416.1699 416.498912L1246.4863 604.842662L1246.4863 604.842662"
         style="fill:#0a1564;fill-opacity:0.59233451" />
      <path
         id="path4685"
         d="M1246.4863 604.842662L1416.1699 416.498912L1416.1699 416.498912L1246.4863 604.842662L1246.4863 604.842662"
         style="fill:#0a1564;fill-opacity:0.59233451" />
      <path
         id="path4687"
         d="M1285.8652 604.842662L1478.8711 416.498912L1478.8711 562.305552L1285.8652 696.412972L1285.8652 604.842662"
         style="fill:#0a1564;fill-opacity:0.59233451" />
      <path
         id="path4689"
         d="M1285.8652 696.412972L1478.8711 562.305552L1522.2402 562.305552L1313.1016 696.412972L1285.8652 696.412972"
         style="fill:#0a1564;fill-opacity:0.59233451" />
      <path
         id="path4691"
         d="M1313.1016 696.412972L1522.2402 562.305552L1522.2402 455.702032L1313.1016 629.463752L1313.1016 696.412972"
         style="fill:#0a1564;fill-opacity:0.59233451" />
      <path
         id="path4693"
         d="M1313.1016 629.463752L1522.2402 455.702032L1529.9316 455.702032L1317.9316 629.463752L1313.1016 629.463752"
         style="fill:#0a1564;fill-opacity:0.59233451" />
      <path
         id="path4695"
         d="M1317.9316 629.463752L1529.9316 455.702032L1545.7402 466.063362L1327.8594 635.969612L1317.9316 629.463752"
         style="fill:#0a1564;fill-opacity:0.59233451" />
      <path
         id="path4697"
         d="M1327.8594 635.969612L1545.7402 466.063362L1532.0684 477.813362L1319.2734 643.350472L1327.8594 635.969612"
         style="fill:#0a1564;fill-opacity:0.59233451" />
      <path
         id="path4699"
         d="M1319.2734 643.350472L1532.0684 477.813362L1528.6504 477.813362L1317.125 643.350472L1319.2734 643.350472"
         style="fill:#0a1564;fill-opacity:0.59233451" />
      <path
         id="path4701"
         d="M1317.125 643.350472L1528.6504 477.813362L1528.6504 515.305552L1317.125 666.897352L1317.125 643.350472"
         style="fill:#0a1564;fill-opacity:0.59233451" />
      <path
         id="path4703"
         d="M1317.125 666.897352L1528.6504 515.305552L1549.6934 562.305552L1330.3418 696.412972L1317.125 666.897352"
         style="fill:#0a1564;fill-opacity:0.59233451" />
      <path
         id="path4705"
         d="M1330.3418 696.412972L1549.6934 562.305552L1595.1973 562.305552L1358.9199 696.412972L1330.3418 696.412972"
         style="fill:#0a1564;fill-opacity:0.59233451" />
      <path
         id="path4707"
         d="M1358.9199 696.412972L1595.1973 562.305552L1570.2012 502.166882L1343.2227 658.645392L1358.9199 696.412972"
         style="fill:#0a1564;fill-opacity:0.59233451" />
      <path
         id="path4709"
         d="M1343.2227 658.645392L1570.2012 502.166882L1589.5371 464.887582L1355.3633 635.233282L1343.2227 658.645392"
         style="fill:#0a1564;fill-opacity:0.59233451" />
      <path
         id="path4711"
         d="M1355.3633 635.233282L1589.5371 464.887582L1573.9414 429.102422L1345.5703 612.758672L1355.3633 635.233282"
         style="fill:#0a1564;fill-opacity:0.59233451" />
      <path
         id="path4713"
         d="M1345.5703 612.758672L1573.9414 429.102422L1534.5254 416.498912L1320.8164 604.842662L1345.5703 612.758672"
         style="fill:#0a1564;fill-opacity:0.59233451" />
      <path
         id="path4715"
         d="M1320.8164 604.842662L1534.5254 416.498912L1478.8711 416.498912L1285.8652 604.842662L1320.8164 604.842662"
         style="fill:#0a1564;fill-opacity:0.59233451" />
      <path
         id="path4717"
         d="M1285.8652 604.842662L1478.8711 416.498912L1478.8711 416.498912L1285.8652 604.842662L1285.8652 604.842662"
         style="fill:#0a1564;fill-opacity:0.59233451" />
      <path
         id="path4719"
         d="M1285.8652 604.842662L1478.8711 416.498912L1478.8711 416.498912L1285.8652 604.842662L1285.8652 604.842662"
         style="fill:#0a1564;fill-opacity:0.59233451" />
    </g>
    <path
       id="path4233"
       transform="translate(0,-27.637808)"
       d="M 673.03125 440.50391 C 659.42967 440.50391 647.716 445.48924 637.88867 455.45898 C 628.13257 465.35752 623.25391 477.17982 623.25391 490.92383 C 623.25391 502.31783 626.49428 513.71148 632.97461 525.10547 C 637.03372 532.29793 639.0625 536.96128 639.0625 539.09766 C 639.0625 542.37344 637.78045 545.11663 635.2168 547.32422 C 632.72436 549.46059 629.59262 550.52734 625.81836 550.52734 C 622.61379 550.52734 618.94477 549.21104 614.81445 546.57617 L 614.81445 588.76953 C 621.65085 591.97409 628.56024 593.57617 635.53906 593.57617 C 650.06641 593.57617 662.34966 588.66326 672.39062 578.83594 C 682.5028 569.00862 687.55859 557.00918 687.55859 542.83789 C 687.55859 533.15299 684.56778 523.11186 678.58594 512.71484 L 675.27539 506.94531 C 672.71174 502.45893 671.42969 498.75565 671.42969 495.83594 C 671.42969 492.41774 672.60506 489.49935 674.95508 487.07812 C 677.30509 484.6569 680.1168 483.44531 683.39258 483.44531 C 685.10168 483.44531 687.5229 483.98064 690.65625 485.04883 L 690.65625 443.49609 C 684.88804 441.50215 679.0131 440.50391 673.03125 440.50391 z M 891.68945 440.50391 C 875.16816 440.50391 861.92288 445.48924 851.95312 455.45898 C 842.05459 465.42873 837.10547 478.71023 837.10547 495.30273 L 837.10547 589.94336 L 880.47266 589.94336 L 880.47266 496.79883 C 880.47266 487.89727 883.53588 483.44531 889.66016 483.44531 C 895.99807 483.44531 899.16602 487.89727 899.16602 496.79883 L 899.16602 589.94336 L 942.53516 589.94336 L 942.53516 496.79883 C 942.53516 478.63965 938.15562 464.71615 929.39648 455.03125 C 920.70856 445.34636 908.13953 440.50391 891.68945 440.50391 z M 1136.625 440.50391 C 1118.8931 440.50391 1105.1125 445.48924 1095.2852 455.45898 C 1085.529 465.35752 1080.6523 479.27906 1080.6523 497.22461 L 1080.6523 589.94336 L 1124.0195 589.94336 L 1124.0195 555.22852 L 1136.5176 555.22852 L 1136.5176 516.77344 L 1124.0195 516.77344 L 1124.0195 498.61328 C 1124.0195 488.50111 1127.4028 483.44531 1134.168 483.44531 C 1137.6574 483.44531 1140.0786 484.55023 1141.4316 486.75781 C 1142.7846 488.9654 1143.4609 492.91628 1143.4609 498.61328 L 1143.4609 589.94336 L 1186.8301 589.94336 L 1186.8301 495.73047 C 1186.8301 476.93038 1182.7343 463.04309 1174.5449 454.07031 C 1166.3555 445.02633 1153.716 440.50391 1136.625 440.50391 z M 1660.4629 440.50391 C 1646.8613 440.50391 1635.1476 445.48924 1625.3203 455.45898 C 1615.5642 465.35752 1610.6855 477.17982 1610.6855 490.92383 C 1610.6855 502.31783 1613.9259 513.71148 1620.4062 525.10547 C 1624.4654 532.29793 1626.4961 536.96128 1626.4961 539.09766 C 1626.4961 542.37344 1625.2141 545.11663 1622.6504 547.32422 C 1620.158 549.46059 1617.0243 550.52734 1613.25 550.52734 C 1610.0454 550.52734 1606.3783 549.21104 1602.248 546.57617 L 1602.248 588.76953 C 1609.0844 591.97409 1615.9919 593.57617 1622.9707 593.57617 C 1637.498 593.57617 1649.7813 588.66326 1659.8223 578.83594 C 1669.9344 569.00862 1674.9902 557.00918 1674.9902 542.83789 C 1674.9902 533.15299 1671.9994 523.11186 1666.0176 512.71484 L 1662.707 506.94531 C 1660.1434 502.45893 1658.8613 498.75565 1658.8613 495.83594 C 1658.8613 492.41774 1660.0367 489.49935 1662.3867 487.07812 C 1664.7367 484.6569 1667.5504 483.44531 1670.8262 483.44531 C 1672.5352 483.44531 1674.9564 483.98064 1678.0898 485.04883 L 1678.0898 443.49609 C 1672.3216 441.50215 1666.4447 440.50391 1660.4629 440.50391 z M 241.91211 444.13672 L 241.91211 589.94336 L 285.2793 589.94336 L 285.2793 486.00977 L 299.91406 486.00977 C 324.76722 486.00977 337.19336 495.94422 337.19336 515.8125 C 337.19336 536.96261 324.55386 547.53711 299.27344 547.53711 L 292.33008 547.53711 L 292.33008 590.37109 C 298.31192 590.65595 302.61905 590.79883 305.25391 590.79883 C 327.68584 590.79883 346.02313 583.81897 360.26562 569.86133 C 374.50813 555.90368 381.63086 537.88837 381.63086 515.8125 C 381.63086 492.73966 373.29849 474.47283 356.63477 461.01367 C 342.60591 449.7621 323.19991 444.13672 298.41797 444.13672 L 241.91211 444.13672 z M 444.97266 444.13672 C 430.44531 444.13672 419.15834 447.98288 411.11133 455.67383 C 403.13553 463.36478 399.14844 474.18884 399.14844 488.14648 L 399.14844 545.29297 C 399.14844 559.7491 403.38509 570.82273 411.85938 578.51367 C 420.33366 586.13341 432.58266 589.94336 448.60547 589.94336 L 482.67969 589.94336 L 482.67969 548.28516 L 453.51953 548.28516 C 448.46344 548.28516 445.1164 547.82224 443.47852 546.89648 C 441.84062 545.89951 441.02148 543.86878 441.02148 540.80664 C 441.02148 538.10057 441.80441 536.17846 443.37109 535.03906 C 445.00898 533.89966 447.75023 533.33008 451.5957 533.33008 L 479.90234 533.33008 L 479.90234 500.85742 L 455.97656 500.85742 C 451.41896 500.85742 448.24906 500.32405 446.46875 499.25586 C 444.68844 498.11646 443.79883 496.12194 443.79883 493.27344 C 443.79883 488.43099 447.53636 486.00977 455.01367 486.00977 L 482.67969 486.00977 L 482.67969 444.13672 L 444.97266 444.13672 z M 485.77734 444.13672 L 548.9082 598.27539 L 612.46484 444.13672 L 564.07617 444.13672 L 549.33594 489.64062 L 535.98242 444.13672 L 485.77734 444.13672 z M 767.45898 444.13672 L 767.45898 589.94336 L 810.82812 589.94336 L 810.82812 444.13672 L 767.45898 444.13672 z M 947.23438 444.13672 L 1010.3652 598.27539 L 1073.9219 444.13672 L 1025.5332 444.13672 L 1010.793 489.64062 L 997.43945 444.13672 L 947.23438 444.13672 z M 1213.1074 444.13672 L 1213.1074 589.94336 L 1256.4746 589.94336 L 1256.4746 486.00977 L 1271.1094 486.00977 C 1295.9625 486.00977 1308.3887 495.94422 1308.3887 515.8125 C 1308.3887 536.96261 1295.7491 547.53711 1270.4688 547.53711 L 1263.5254 547.53711 L 1263.5254 590.37109 C 1269.5073 590.65595 1273.8164 590.79883 1276.4512 590.79883 C 1298.8831 590.79883 1317.2204 583.81897 1331.4629 569.86133 C 1345.7054 555.90368 1352.8262 537.88837 1352.8262 515.8125 C 1352.8262 492.73966 1344.4938 474.47283 1327.8301 461.01367 C 1313.8013 449.7621 1294.3953 444.13672 1269.6133 444.13672 L 1213.1074 444.13672 z M 1416.1699 444.13672 C 1401.6426 444.13672 1390.3556 447.98288 1382.3086 455.67383 C 1374.3328 463.36478 1370.3438 474.18884 1370.3438 488.14648 L 1370.3438 545.29297 C 1370.3437 559.7491 1374.5804 570.82273 1383.0547 578.51367 C 1391.529 586.13341 1403.778 589.94336 1419.8008 589.94336 L 1453.877 589.94336 L 1453.877 548.28516 L 1424.7148 548.28516 C 1419.6588 548.28516 1416.3118 547.82224 1414.6738 546.89648 C 1413.036 545.89951 1412.2168 543.86878 1412.2168 540.80664 C 1412.2168 538.10057 1412.9997 536.17846 1414.5664 535.03906 C 1416.2043 533.89966 1418.9474 533.33008 1422.793 533.33008 L 1451.0996 533.33008 L 1451.0996 500.85742 L 1427.1719 500.85742 C 1422.6143 500.85742 1419.4443 500.32405 1417.6641 499.25586 C 1415.8837 498.11646 1414.9941 496.12194 1414.9941 493.27344 C 1414.9941 488.43099 1418.7336 486.00977 1426.2109 486.00977 L 1453.877 486.00977 L 1453.877 444.13672 L 1416.1699 444.13672 z M 1478.8711 444.13672 L 1478.8711 589.94336 L 1522.2402 589.94336 L 1522.2402 483.33984 L 1529.9316 483.33984 C 1540.4711 483.33984 1545.7402 486.79356 1545.7402 493.70117 C 1545.7402 501.53455 1541.1836 505.45117 1532.0684 505.45117 L 1528.6504 505.45117 L 1528.6504 542.94336 L 1549.6934 589.94336 L 1595.1973 589.94336 L 1570.2012 529.80469 C 1583.0906 519.69251 1589.5371 507.26638 1589.5371 492.52539 C 1589.5371 478.06926 1584.3385 466.14028 1573.9414 456.74023 C 1564.6126 448.33716 1551.474 444.13672 1534.5254 444.13672 L 1478.8711 444.13672 z "
       style="font-style:normal;font-variant:normal;font-weight:normal;font-stretch:normal;font-size:medium;line-height:125%;font-family:'Bauhaus 93';-inkscape-font-specification:'Bauhaus 93, ';letter-spacing:0px;word-spacing:0px;fill:#1cdd00;fill-opacity:1;stroke:#000000;stroke-width:1px;stroke-linecap:butt;stroke-linejoin:miter;stroke-opacity:1" />
    <text
       xml:space="preserve"
       style="font-style:normal;font-weight:normal;font-size:52.44096375px;line-height:125%;font-family:'Showcard Gothic';letter-spacing:0px;word-spacing:0px;fill:#ff0000;fill-opacity:1;stroke:none;stroke-width:1px;stroke-linecap:butt;stroke-linejoin:miter;stroke-opacity:1;-inkscape-font-specification:'Showcard Gothic';font-stretch:normal;font-variant:normal;"
       x="-170.33003"
       y="494.8317"
       id="text4328"
       sodipodi:linespacing="125%"
       transform="matrix(0.74262439,-0.42909024,0.58331259,1.0095363,0,0)"><tspan
         sodipodi:role="line"
         id="tspan4330"
         x="-170.33003"
         y="494.8317">WORK IN PROGRESS</tspan></text>
  </g>
</svg>
